<svg xmlns="http://www.w3.org/2000/svg" viewBox="0 0 45.16 45.16"><defs><style>.cls-1{fill:#2e3192;}</style></defs><g id="Layer_2" data-name="Layer 2"><g id="Layer_1-2" data-name="Layer 1"><path class="cls-1" d="M10.73,5.9s-.05.1-.07.16l0,0a1.39,1.39,0,0,0,.46-.25l0-.1a.85.85,0,0,0-.91,0,1.69,1.69,0,0,0,.5.14v0m-.48,1.28v.07c.61.2,1.08-.87,1.54-1.2V6a.21.21,0,0,1,0-.06l-.21,0L11.5,6a3.87,3.87,0,0,1-1.25,1.23m-1.56,1A.9.9,0,0,0,9.14,8l.6,1a3.83,3.83,0,0,1-.83,1.19v0a.62.62,0,0,0,.24.1c.39-.3.43-.68.75-1l.05,0a5.56,5.56,0,0,0,.89,1.6l.2-.07c.22-.53-.32-1.28-.71-1.86h0c.3,0,.46.3.79.27l.56.78,0,0-.45-.15,0,0,0,0a3.51,3.51,0,0,0,1,.69l.24-.27A24.62,24.62,0,0,0,10.74,8l.36-.6c.08.07.06.06.17,0,.28.64.78,1.31.55,1.85l0,.06.21.06.07,0a4.08,4.08,0,0,0-.66-2L11.57,7l.06,0c.54.91,1,2.3,2.14,1.24a1,1,0,0,0,.27-.4,2.6,2.6,0,0,0-.81-1.2l-.08,0c0,.32.51.9.49,1.37a3.26,3.26,0,0,1-.68.52c-.65-.32-1.1-1.74-1.35-1.86-.12.16-.11.33-.28.49L11.18,7h-.09a1.23,1.23,0,0,0,0,.19L11,7.24v0A.2.2,0,0,0,11,7H11c-.06.13-.08.15,0,.23a.82.82,0,0,0-.36.46,1.9,1.9,0,0,1-.72-1.06,1.27,1.27,0,0,0-.48-.06c-.12,0-.13.15-.22.25-.08-.32,0-.55-.35-.78l-.35,0a7.64,7.64,0,0,0,.17,2l0,0m1.8.19c.14,0,.29.31.41.51l0,0-.51-.25,0,0,.14-.26m-.22-.34a.56.56,0,0,1,.05.08l-.16.3L10,8.51c-.06-.13,0-.14-.13-.2l0-.13.09,0a.45.45,0,0,0,.07.25c.05-.14,0-.23.19-.35m-1-.63c.07-.12.07-.2.22-.31l.58.63c-.06.07-.25.06-.37.17l-.51-.3c0-.09,0-.19,0-.29s.06,0,.12.1M6.49,23c-.49-.27-1.86-1-2.68-.85a2.4,2.4,0,0,0-.38,1.39H3.27l-.07.09c-.06.25.08.39.11.54h0c.09-.1,0-.23,0-.34.12-.07.19.28.22.48l0,0c-.89-.23-.67-.83-1-1.5a1,1,0,0,0-.36.08c-.07.22-.08.45-.13.64v0c.07,0,0,0,.11,0a.88.88,0,0,1,.06.35l-1-.09L.84,24l0,.12c.89.58,1.65-.3,1.53,1.37l.13.13.19,0c.3-.11.37-.54.33-.9.7.09.83.5.77,1.08a1.14,1.14,0,0,0,.44.33,9.43,9.43,0,0,0,2-.26,1.34,1.34,0,0,0,0-.52,1,1,0,0,0-.67,0H5.43a1.11,1.11,0,0,0-.07-.78c.18-.13.6-.06.86-.08a.3.3,0,0,0,0-.23c-.07,0-.33,0-.37-.07.3-.37.77-.49.61-1.15M3.93,24.64h0c-.12-.16-.08-.41-.17-.61v-.09a1.66,1.66,0,0,1,.45.24c.08.07.15.14.15.19l.09,0c0,.06.05,0,.08.13-.16,0-.42,0-.55.05s0,0,0,.13m.14.83L4,25.4a1.84,1.84,0,0,0,0-.54.91.91,0,0,0,.52-.27c0,.2.09.4.13.59l0,0A.33.33,0,0,0,4.85,25c.08-.19,0-.41,0-.58H5a2.32,2.32,0,0,1,.22.85l-1.16.17m1.68-1.29H5.33a1.29,1.29,0,0,1-.11-.5c.08-.17,0-.25-.22-.19a1.26,1.26,0,0,0,0,.67.42.42,0,0,1-.27,0,2.24,2.24,0,0,1-.09-.61l0,0H4.41a.7.7,0,0,0,0,.43v0a1.89,1.89,0,0,1-.76-.52,4.82,4.82,0,0,1,.13-.83c.41-.25,1.74.42,2.11.58.07.44-.08.53-.18.9m20.76-13,.38.29,1.19-3.27L27.65,8Zm4.69,3.39.43.22,2.58-2.32-.3-.34Zm-11-7.2.39,2.78L21,10l-.38-2.73ZM32.33,34.56l.35-.29-1.22-1.45-.31.33ZM25.76,10.68l.41.23.89-3.11-.44-.12Zm4.68,23.11,1,1.42.37-.27L30.79,33.5l-.35.29m3.77-1-1.7-1.53c-.07.14-.14.28-.22.41l1.62,1.45ZM26.53,4.51a7.56,7.56,0,0,1-.91,1.61S25.54,6,25.57,6s-.29.41,0,.46c0,0,0,.15.5-.54,0,0,.14.93.45,1,0,0,.17,0,.27-.43l.87-2.28.27-.07s.25.22,1.32.16c0,0,.48.09.53.2A.29.29,0,0,0,30,4.4s.06-.34-.74-.35l-1.05-.17s-.49-.14-.34-.2A1.8,1.8,0,0,1,28.31,3a.28.28,0,0,0-.19-.4s-.52-.09-.56,0l-.17.22a.56.56,0,0,1,.66,0L27.52,4.1a2.94,2.94,0,0,0-.55.14s-.15,0,.05-.32c0,0,.16-.57.26-.42s.14.15-.09.41c0,0,.12-.1.2,0s.24.14.18-.19a.62.62,0,0,0-.28-.41.48.48,0,0,1,0-.34.17.17,0,0,0,0-.15s1-.72,1.18-1.17c0,0,0-.14-.11-.12s0,.05,0,.05.05.07-.29.38a6.19,6.19,0,0,1-1.12.77s-.2.32.08.21c0,0,.29-.22.18.14l-.49,1.15a2.55,2.55,0,0,1-1.19.06s.11-.22.19-.21a.35.35,0,0,0-.42.36s0,.41,1.3.07m-.29,1.65-.13-.43s0-.14.08-.05a2.31,2.31,0,0,0,.13.5s0,.05-.08,0m.53-1.7s.11.1,0,.71c0,0,.14.16.19,0a1.33,1.33,0,0,0,0-.68s0-.06,0-.06a2.13,2.13,0,0,1,.39-.15V4.19h.08s-.87,2.05-.9,2.16l-.17-.14s-.19-.54-.19-.59a12.2,12.2,0,0,0,.56-1.17M30,9.05l-.4-.21L27.8,12.28c.11.12.21.25.32.38Zm.8,5.32,2.64-2.74-.32-.31L30.36,14.2a3.75,3.75,0,0,1,.47.17M26,7.53l-.44-.1L25,10.32l.42.17Zm-2.12-.34-.46,0L23.24,9.9l.45.07ZM22.81,9.87V7.14h-.46V9.86h.46m-.89,0-.19-2.72-.45,0,.19,2.73.45,0m3-2.56-.45-.06-.4,2.8a3.17,3.17,0,0,1,.44.12Zm3.93,6.58.26,0,2.69-3.71L31.47,10l-2.7,3.72.12.22m1.11.2,2.68-3.2-.35-.29L29.5,14a4.48,4.48,0,0,1,.5.11m-1.4-.72L31,9.61l-.39-.24L28.33,13a3.87,3.87,0,0,1,.27.43M29.69,3a1.34,1.34,0,0,0-.32-.36c-.05-.05-.05,0-.05,0a.79.79,0,0,1,0,.9h-.27s-.05.06.47.2c0,0,.51-.12.17-.79m-.25,4c-.21.12-.87-.24-.87-.24-.33-.31.24-1.21.24-1.21s.52-.73.52-.73-.17-.2-.17-.2a2.39,2.39,0,0,0-.54.09l-.23-.13s0,.13,0,.13-.25.08-.25.08,0,.16.14.11C27.65,6.12,27,6.25,27,6.25c-.2.06,0,.29,0,.29.53,0,1.54-1.59,1.54-1.59s.41,0,.41,0-.54,1-.54,1c-.46.88-.06,1-.06,1,1.11.71,1.43.31,1.43.31A1.1,1.1,0,0,0,30,6.05a4.19,4.19,0,0,1-.52,1m2.34,25.41,1.37,1.42.32-.32L32,32.05c-.08.13-.17.26-.26.38M28.08,37l-.67-1.84-.46.07.7,1.92Zm-2.51.71.44-.09-.5-2.35-.47,0Zm1.49-.37-.6-2.06H26l.63,2.18Zm5.66-21.89.36.31,2.43-1.64-.25-.38ZM32,15l.4.26,2.5-2-.28-.36ZM9.1,15.06l2.4,1.39c.1-.12.2-.24.31-.35L9.32,14.67ZM19.2,35.19l-.46,0-.63,2.19.43.13ZM17.09,37l.42.15.75-2.05-.46-.07Zm3.06-1.89-.48,0-.52,2.46.44.09ZM35.27,22.37l2.75-.1v-.45l-2.67.09c0,.15,0,.31-.07.46M35.4,21v0c0,.14,0,.28,0,.41L38,21.19l0-.45Zm-.07-.91c0,.15,0,.3.05.46l2.45-.44-.08-.44Zm-8.14-8.43.35.33,1.53-3.43-.41-.19ZM34,16.77l.26.38L36.56,16l-.2-.41Zm-.59-.69c.11.11.21.23.31.35l2.37-1.37-.23-.39Zm1.08,1.46a3,3,0,0,1,.21.4L37,17l-.16-.42Zm.4.81c.06.14.11.28.16.43L37.34,18l-.14-.43Zm-20,15.31-.35-.3-1.15,1.58.37.27Zm-.7-.64c-.11-.1-.21-.22-.31-.33l-1.33,1.58.35.29ZM8.6,16,11,17.16l.27-.37L8.8,15.61Zm11.59-5.8-.6-2.79-.44.1.61,2.85.43-.16M18.11,7.8l.85,3a3.17,3.17,0,0,1,.41-.21l-.83-2.87Zm-1,.35,1.12,3.09L18.6,11,17.51,8ZM13.5,32.31c-.09-.12-.18-.25-.26-.38l-1.55,1.6.33.32Zm2.1,1.88L15.21,34l-1,1.61.38.24ZM12.48,10.9l2.73,3.25a4,4,0,0,1,.5-.11l-2.88-3.43Zm-2.21,2.36,2.55,2c.13-.09.26-.18.4-.26L10.55,12.9Zm-.62.88,2.47,1.66q.18-.17.36-.3L9.91,13.76Zm2-2.51,2.68,2.78a4.5,4.5,0,0,1,.48-.16L12,11.32Zm-.74.79,2.62,2.36.44-.22-2.75-2.48Zm2.37-2.2L16,13.89c.07-.15.15-.3.23-.44L13.69,10ZM11,32.75l.31.33L13,31.52c-.08-.13-.15-.27-.22-.41ZM35.16,19.21c0,.15.07.3.1.45l2.36-.59-.11-.44ZM25.63,39.29,24.69,43l.58-.09.25-1.07,1.71-.25.6.94.63-.09L26.28,39.2Zm0,2.12L26,39.77h0l.91,1.46Zm2.26-6.35.77,1.72.41-.18-.74-1.67-.44.13m-3.31.1c-.16,0-.32-.07-.48-.12l.41,2.86.45-.06ZM30,34.08l-.39.25.92,1.47.39-.24Zm-6.84.64L23.43,38l.46,0-.22-3.06-.47-.19m5.6,0,.83,1.57.4-.21-.82-1.55a3.75,3.75,0,0,1-.41.19m-11.9,0-.81,1.81.42.18.82-1.85a3.59,3.59,0,0,1-.43-.14m13.93,2.82.79,3.76L32.1,41,31.85,40l1.43-1,1,.59.52-.36-3.39-2Zm.56.25,1.46.91-1.09.75-.38-1.65ZM19.87,41.8c-.18.65-.66.9-1.42.76s-1-.54-.84-1.18l.57-2.21-.6-.11L17,41.41c-.18.8.27,1.31,1.34,1.53s1.87-.14,2.13-1L21,39.69l-.59-.11ZM16,34.43l-.9,1.68.4.21.91-1.7L16,34.43m6.32,0V38h.46V34.54l-.28-.15-.18.09M21.28,38l.45,0L22,34.65c-.15.07-.3.12-.46.18Zm-1.07-.13.45.07.41-3-.47.11ZM34.72,24.09l3.2.33L38,24l-3.05-.32c-.06.15-.13.29-.19.44M33.49,10c1,.91,2.84.14,2.84.14a10.89,10.89,0,0,1-.23,1.3,1.62,1.62,0,0,0,0,1,7,7,0,0,0,.42.68.25.25,0,0,1,.17-.07,1.23,1.23,0,0,0-.09-.62A5.78,5.78,0,0,1,36.72,10c0-.14.25-.2.25-.2l.38.17c.08.25.22.2.22.2s.12,0,.12,0a.25.25,0,0,0,0-.4l-.42-.26.52-.32c.37.32.56.29.56.29l.16-.22,0-.26a1,1,0,0,1-.24-.25,2.49,2.49,0,0,1-.66-.45s-.11,0-.1,0a.44.44,0,0,1-.06.16c-.14.18-.09.16-.09.16s0,.21,0,.21c0,.23-.49.44-.49.44a5.27,5.27,0,0,0-.86-.57c-.32-.17-.1.06-.1.06a1,1,0,0,0,0,.44,2.16,2.16,0,0,0,.59.32,4.14,4.14,0,0,1-2.93.23c-.42-.07-.12.19-.12.19m1.56,13.25,3,.11V22.9l-2.84-.1c0,.15-.08.3-.13.44m-21.86,17V36.61l-.6-.35-2.28,3.13.48.27,1.85-2.52h0v3.6l.55.32L15.52,38,15,37.67ZM34.28,24.88l3.47.61.08-.45-3.3-.58c-.08.14-.16.28-.25.42M22.58,45.16A22.58,22.58,0,1,0,0,22.58,22.62,22.62,0,0,0,22.58,45.16m0-44.68A22.11,22.11,0,1,1,.48,22.58,22.15,22.15,0,0,1,22.58.48M38.23,16.53a.24.24,0,0,1,.05.21,1.41,1.41,0,0,0,.77.57,8.33,8.33,0,0,0,1.3,0s-1.09,1.63-.94,2.06v.35s.05,0,0,.12a.51.51,0,0,1,.14,0s.05,0,.05-.07a5.3,5.3,0,0,1,.93-2.48l.15,0a2.19,2.19,0,0,1,.72.9.21.21,0,0,0,.18-.24.72.72,0,0,1-.07-.39s.05-.12-.14.13l-.33-.47s-.12-.08.55-.2a5.41,5.41,0,0,0,.94-.31s.14-.2-.07-.18h-.11a7.59,7.59,0,0,1-1.48.41l-.57-1.15a.58.58,0,0,0-.17.58s.44.62.3.67-1.67.33-2.11-.68ZM33.16,29l2.68,1.55.23-.39L33.2,28.45a4,4,0,0,1,0,.5m-.46,1.83,1.91,1.49.28-.36-2-1.58c0,.15-.11.3-.17.45M33.21,28l3.15,1.54.2-.41L33.18,27.5a4.53,4.53,0,0,1,0,.52m.55-2.42,3.75.94.11-.44-3.56-.89q-.15.21-.3.39M33,29.88l2.27,1.53.25-.38L33.1,29.4c0,.16-.07.32-.11.48m.14-2.79,3.69,1.49.16-.42L33,26.56a4.89,4.89,0,0,1,.09.53m0-.84,4.05,1.32.14-.43L33.5,25.89a4,4,0,0,1-.35.36M7.2,21.19l2.58.27c0-.11,0-.23,0-.35V21l-2.52-.27Zm.13-1.07,2.46.44c0-.16,0-.3.05-.45l-2.43-.43Zm-4-5.62s.35-.13.4-.09a2.89,2.89,0,0,1,0,.73s.07.17.09-.43c0,0,0,.1.14-.28a.41.41,0,0,1,.13-.18S4.24,14,3.94,14c0,0-.91.06-1,.55a.22.22,0,0,0,0,.16,1.14,1.14,0,0,1,.37-.22M19.84,5.64c.08-.29-.27-.78-.27-.78a1.32,1.32,0,0,1,.32-.07c.3-.16.11-.27.11-.27a.53.53,0,0,0-.57.11,2.68,2.68,0,0,1-.91.46.1.1,0,0,0,.06,0s.17.11.17.11c.22.2.51-.17.51-.17a.75.75,0,0,1,0,.91,1.82,1.82,0,0,0-.45.22,1.25,1.25,0,0,1-.42.18c-.2-.07-.09,0-.09,0a.85.85,0,0,1,.07.21,1.39,1.39,0,0,0,.47,0,1.42,1.42,0,0,1,.48-.29,2,2,0,0,1,1.49-.47c.07-.05,0-.17,0-.17s0,0,0,0c-.14-.17-.94,0-.94,0s-.1,0-.1,0M6.48,15a2.24,2.24,0,0,1,.84-.32c.37-.15.09-.36.09-.36a.74.74,0,0,0-.75.07,1,1,0,0,0-.25.61s0,0,.07,0M3.7,17.61s.12-.13.1-.1.27-.27.27-.27a2,2,0,0,1,0-.54c.21-1.23.1-1.21.1-1.21.27-1.05.14-1,.14-1l.36-.91c.19-.31.16-.38.16-.38-.18-.14-.32.21-.32.21a9.7,9.7,0,0,1-.33,1,12.56,12.56,0,0,0-.46,3.24m6.45,1.17c0-.14.11-.28.17-.42L8,17.6,7.83,18Zm-.13.44-2.37-.59-.11.44,2.38.59c0-.15.06-.3.1-.44M7.14,22.27l2.74.09c0-.15-.05-.3-.07-.45l-2.65-.09ZM17.34,4.64s0-1.14.64-1.33c0,0,.09-.21.32.14a2.43,2.43,0,0,1,0,1.25s-.25-.08-.19.1L18,4.9a.28.28,0,0,1,.15.12s.05.26.44-.09a3.11,3.11,0,0,0,.11-1.52s-.14-.24-.34-.11c0,0-.35-.07-.07-.17a3.85,3.85,0,0,1,1.5-.52s-.22.3-.17.43,0,.23.42-.14a.51.51,0,0,1,.33-.18s.29-.48-.26-.43a1,1,0,0,1-.25,0,2.07,2.07,0,0,0-.95.19.68.68,0,0,0-.37-.66l-.17-.14s-.53,0-.56.19,0,.14,0,.13a.64.64,0,0,1,.39.4L18,2.5s-.11.15.21,0c0,0,.12.16.21.13l0,.07a3,3,0,0,0-.85.48s0-.5-.29-.42a4,4,0,0,0-.54,1.87.28.28,0,0,1,.08.15s.24.29.51-.19m-4.75,26c-.06-.15-.12-.3-.17-.45l-2.15,1.68.28.36Zm5.3-19.19L16.51,8.38l-.42.19,1.44,3.23.36-.31M16.7,12.73,14.59,9.37l-.38.24,2.2,3.53c.09-.14.19-.28.29-.41m-6,4.82-2.37-1L8.18,17,10.5,18c.07-.14.14-.27.22-.4m6.53-5.47L15.53,8.84l-.4.21,1.8,3.39a3.73,3.73,0,0,1,.32-.36m2.49-8.21s-.29.11-.31-.05a4.27,4.27,0,0,1-.31-.89S19,2.83,19,2.88s-.07,0-.07,0A1.89,1.89,0,0,0,19.21,4a.28.28,0,0,0,.3.09l0,.06a5.24,5.24,0,0,0-.51.61s.07.06.08-.06.07-.11.16-.07.23-.4.4-.44c0,0,.27,0,.27-.26,0,0-.07-.08-.14-.06s0-.11-.05,0M11.07,25.22l-3.53.88.11.44,3.72-.93a2.88,2.88,0,0,1-.3-.39m1,2.23L8.6,29.15l.2.41L12.07,28c0-.17,0-.34,0-.51m-.47-1.54L7.83,27.14l.14.43,4-1.3-.35-.36m.61.61L8.18,28.16l.17.42,3.79-1.53a4.51,4.51,0,0,1,.09-.53m-.15,1.86-3,1.73.22.39,2.8-1.62c0-.16,0-.33,0-.5m.11.94L9.65,31l.26.38,2.38-1.61c0-.16-.07-.32-.1-.48M4.71,14.4s0,.42-.08.55a.79.79,0,0,0,0,.34s0,.09-.11.08a.11.11,0,0,0-.11.08s.15.32.81.21c0,0,.55.26.6-.32A8.61,8.61,0,0,1,7.62,16s0,.39-.91.58c0,0,1,.25,1.24-.55,0,0,.22-.17-1.18-.6l-1.15-.35s.14-.39,0-.45h0s-.07.07-.09,0-.2-.44-.4-.52a.35.35,0,0,0-.4.33m.22.15c.47.38.44.73.44.73a.92.92,0,0,1-.49,0s-.11-.52,0-.68m5.31,9.1L7.2,24l0,.45,3.17-.33a3.38,3.38,0,0,1-.18-.44m.36.81L7.33,25l.08.45,3.44-.61a4.23,4.23,0,0,1-.25-.42m-4-7.78s.06,0-.3-.23c0,0-.18-.28-.17-.25s-.09-.06.06.19l.11.14s0,.07-.1,0-.11-.14-.43-.09l0,.05,0,0s.08.09.12.09,0,.17.66.6a.28.28,0,0,0,.41-.27s-.33-.22-.31-.25M10,22.8l-2.83.1,0,.45,2.93-.1L10,22.8m32.52,2.41-.1-.07.12.4.1,0a.45.45,0,0,0,.27-.37c-.12,0-.19.12-.27.2l-.12-.19m-.6,0,.11.1a1.09,1.09,0,0,0,.18-.3c.06-.07,0-.05.14,0a.17.17,0,0,0,0-.07l0-.07h-.16a1.37,1.37,0,0,0-.23.37m-.46-1.73,0-.26.16,0,0,0a1.2,1.2,0,0,0-.72-.8h-.07a.38.38,0,0,0,0,.33c.08.21.38.28.48.47A6,6,0,0,1,41.32,25l-.2.09c0,.13.08.16.16.23l-.12.32v0c-.18-.07-.25-.51-.29-.69l0,0a2.48,2.48,0,0,0,.2,1.14c.25-.12.21-.44.36-.7l.07-.05a4,4,0,0,0,1.8.57h.07c.06-.18.07-.59-.07-.66a1,1,0,0,0,0,.48,3.56,3.56,0,0,1-1.75-.57l.34-.21,0,0v0l-.4.1h0c0-.06,0-.11,0-.17s.37-.15.5-.28c.29.07.39.27.71.32l.09-.12v0c-.21-.07-.43-.15-.63-.24,0-.09.07-.13.13-.22.25,0,.47.26.69.36l0,.09-.3.34v.05a.56.56,0,0,0,.37-.32c.26.08.29.28.6.33l.09-.12c-.07-.06-.05,0-.14,0l-.43-.34a1,1,0,0,0,.2-.47l0,0a1.06,1.06,0,0,0-.23.37l-.07,0c-.06-.07-.11-.15-.17-.23a.19.19,0,0,1,.19-.08l0,0-.27,0c.06-.19,0-.2,0-.38l-.12-.08v.19l-.24,0c.09.09.19.08.24.22l0,.09a.71.71,0,0,0-.09.07c-.19-.15-.48-.49-.72-.55,0,0,0,0,0-.06a1.71,1.71,0,0,0,.89-.09,3.13,3.13,0,0,0,.85.63.25.25,0,0,0,.18-.1c-.29-.18-.85-.47-.91-.83a.26.26,0,0,0-.24,0c0,.1,0,.11,0,.2a5.69,5.69,0,0,1-1.33.07m.06,1.24h0c0-.35,0-.69,0-1,.08-.07.27-.06.4-.08l0,.05-.11.11.16.15v0s0,0,0,0l-.38,0,0,0s0,0,0,.06a1,1,0,0,0,.42.33c-.09.15-.3.15-.41.29m.74-.55c0,.11-.11.14-.18.21l-.33-.21s0-.05,0-.08l.19-.08.31.16M41.1,25h.12c0-.05,0-.11,0-.16l-.21-.64v-.07l.17,0,.06,0a.6.6,0,0,0-.54-.32l-.07.08c0,.14,0,.21.18.27a.41.41,0,0,0,0,.09l-.33.2-.08,0c0-.49-.07-1-.1-1.47l-.16,0a3,3,0,0,0,.05,1.47.19.19,0,0,1,0,.08,4.52,4.52,0,0,1-1.42-.14,2.29,2.29,0,0,1-.15-1l0,0c-.58,1.39.5,1.46,1.58,1.37h0a1.49,1.49,0,0,1-.19.79v0l.12,0a1.46,1.46,0,0,0,.27-.88c.22-.19.51.15.62.35m-.29-.53.14-.17c.14.06.13.13.18.26a.88.88,0,0,0,0,.16l-.29-.2v-.05M19.35,31.87V29.22H19.1c-.05.36-.29.53-.73.51V30H19v1.87Zm2.06-2.65a.83.83,0,0,0-.85.91.78.78,0,0,0,.82.86.67.67,0,0,0,.61-.31h0q-.13,1-.63,1a.42.42,0,0,1-.46-.43h-.32c0,.43.29.65.78.68s.93-.52,1-1.48c0-.8-.33-1.21-.93-1.22m0,1.47q-.56,0-.54-.57c0-.38.18-.57.51-.59s.51.19.54.56-.18.59-.51.6m3.29.33a.85.85,0,0,0-.88-.86.79.79,0,0,0-.5.16l.1-.72h1.12v-.32H23.2L23,30.71h.28a.64.64,0,0,1,.5-.25.56.56,0,0,1,.57.59c0,.38-.22.58-.54.61a.51.51,0,0,1-.58-.46H22.9c.05.45.34.68.86.71a.9.9,0,0,0,1-.9m1.52-.4-.35.2a1.13,1.13,0,0,0-.62,1.05h1.81v-.31H25.65a.77.77,0,0,1,.44-.5l.28-.16c.5-.22.74-.51.72-.89a.8.8,0,0,0-.84-.79.84.84,0,0,0-.91,1h.34c0-.44.19-.65.53-.65a.48.48,0,0,1,.53.47c0,.24-.14.45-.49.62m-11.9-8.46.39.3a9.35,9.35,0,0,1,4.36-2.63l-4.74,5.94h0l.39.31a9.64,9.64,0,0,1,5-2.81l-5.41,6.78h0l.39.31a10.31,10.31,0,0,1,7.83-3.13,10.41,10.41,0,0,1,7.83,3.13l.38-.31-5.41-6.78a9.84,9.84,0,0,1,5,2.81l.38-.31L26,19.84a9.4,9.4,0,0,1,4.36,2.63l.38-.31L22.57,11.87,14.36,22.16Zm14.54,6.31a11.66,11.66,0,0,0-6.32-1.73,11.66,11.66,0,0,0-6.3,1.71l4.25-5.33a12.45,12.45,0,0,1,4.1,0ZM21,22.55l1.6-2,1.6,2a14.27,14.27,0,0,0-3.2,0m7.92,1.64a11.12,11.12,0,0,0-4-1.53l-2.31-2.9-2.31,2.9a11,11,0,0,0-4,1.51l3.63-4.55a12.06,12.06,0,0,1,2.67-.29,12.69,12.69,0,0,1,2.67.29ZM20.38,19l2.19-2.74L24.76,19a13.41,13.41,0,0,0-4.38,0m2.19-6.36,6.32,7.91a11.2,11.2,0,0,0-3.38-1.4l-2.94-3.68-2.94,3.68a11.08,11.08,0,0,0-3.36,1.38Z"/></g></g></svg>